<?xml version="1.0" encoding="UTF-8"?>
<svg width="124px" height="71px" viewBox="0 0 124 71" version="1.1" xmlns="http://www.w3.org/2000/svg" xmlns:xlink="http://www.w3.org/1999/xlink">
    <!-- Generator: Sketch 46 (44423) - http://www.bohemiancoding.com/sketch -->
    <title>Biffures_logo</title>
    <desc>Created with Sketch.</desc>
    <defs>
        <polygon id="path-1" points="16.1449276 20.8084029 16.1449276 0.136078871 0.100196697 0.136078871 0.100196697 20.8084029 16.1449276 20.8084029"></polygon>
    </defs>
    <g id="Accueil-3" stroke="none" stroke-width="1" fill="none" fill-rule="evenodd">
        <g id="Accueil" transform="translate(-658.000000, -25.000000)">
            <g id="Logo-Footer" transform="translate(658.000000, 25.000000)">
                <g id="Biffures_logo">
                    <g id="Group-9" transform="translate(8.000000, 0.000000)" fill="#428BF5">
                        <path d="M24.8316935,8.9758871 C25.0607258,9.01620968 25.3921774,9.03072581 25.8050806,9.03072581 C27.0075,9.03072581 28.1139516,8.58879032 28.1139516,7.28233871 C28.1139516,6.05814516 27.0591129,5.54927419 25.7905645,5.54927419 L24.8316935,5.54927419 L24.8316935,8.9758871 Z M24.8316935,4.67104839 L25.8865323,4.67104839 C27.1115323,4.67104839 27.8341129,4.02991935 27.8341129,3.16701613 C27.8341129,2.10814516 27.0333065,1.69524194 25.8615323,1.69524194 C25.3260484,1.69524194 25.023629,1.73959677 24.8316935,1.77991935 L24.8316935,4.67104839 Z M23.673629,0.991209677 C24.1792742,0.887983871 24.9800806,0.806532258 25.7905645,0.806532258 C26.9526613,0.806532258 27.7010484,1.00572581 28.2615323,1.45572581 C28.7260484,1.80572581 29.0066935,2.33717742 29.0066935,3.04524194 C29.0066935,3.91137097 28.4316935,4.67104839 27.4873387,5.01782258 L27.4873387,5.04443548 C28.3397581,5.2541129 29.3389516,5.96620968 29.3389516,7.29766129 C29.3389516,8.06782258 29.0325,8.65491935 28.5784677,9.09766129 C27.9518548,9.66943548 26.941371,9.93475806 25.4695968,9.93475806 C24.6728226,9.93475806 24.0575,9.88314516 23.673629,9.8275 L23.673629,0.991209677 Z" id="Fill-3"></path>
                        <path d="M38.721129,5.08451613 L39.9082258,5.08451613 C41.1517742,5.08451613 41.9332258,4.40225806 41.9332258,3.38048387 C41.9332258,2.21516129 41.096129,1.71032258 39.8679032,1.695 C39.3106452,1.695 38.9090323,1.75467742 38.721129,1.80629032 L38.721129,5.08451613 Z M37.5670968,0.990967742 C38.1493548,0.873225806 38.9896774,0.806290323 39.7872581,0.806290323 C41.03,0.806290323 41.8259677,1.03129032 42.3864516,1.53693548 C42.8404839,1.93854839 43.0953226,2.54741935 43.0953226,3.24419355 C43.0953226,4.42806452 42.3469355,5.21758065 41.4025806,5.53854839 L41.4025806,5.57564516 C42.096129,5.81516129 42.5090323,6.45709677 42.7227419,7.38935484 C43.013871,8.6433871 43.2243548,9.50709677 43.4162903,9.85709677 L42.213871,9.85709677 C42.0662903,9.58774194 41.871129,8.82806452 41.6122581,7.71112903 C41.3469355,6.46758065 40.8679032,6.00306452 39.8162903,5.96596774 L38.721129,5.96596774 L38.721129,9.85709677 L37.5670968,9.85709677 L37.5670968,0.990967742 Z" id="Fill-5"></path>
                        <path d="M55.8629839,6.12080645 L54.9815323,3.53532258 C54.7831452,2.95306452 54.6500806,2.4216129 54.5170161,1.89822581 L54.4871774,1.89822581 C54.3581452,2.43290323 54.211371,2.97483871 54.0371774,3.52080645 L53.1597581,6.12080645 L55.8629839,6.12080645 Z M52.9202419,7.02806452 L51.9831452,9.85709677 L50.7879839,9.85709677 L53.8347581,0.873225806 L55.236371,0.873225806 L58.3008871,9.85709677 L57.0654032,9.85709677 L56.0992742,7.02806452 L52.9202419,7.02806452 Z" id="Fill-8"></path>
                        <polygon id="Fill-10" points="66.2854839 9.85725806 67.4508065 9.85725806 67.4508065 0.872580645 66.2854839 0.872580645"></polygon>
                        <path d="M77.2904032,5.08451613 L78.4855645,5.08451613 C79.7250806,5.08451613 80.5137903,4.40225806 80.5137903,3.38048387 C80.5137903,2.21516129 79.6662097,1.71032258 78.4412097,1.695 C77.8879839,1.695 77.4823387,1.75467742 77.2904032,1.80629032 L77.2904032,5.08451613 Z M76.1404032,0.990967742 C76.7226613,0.873225806 77.5637903,0.806290323 78.3597581,0.806290323 C79.5992742,0.806290323 80.3960484,1.03129032 80.9565323,1.53693548 C81.4137903,1.93854839 81.6645968,2.54741935 81.6645968,3.24419355 C81.6645968,4.42806452 80.9194355,5.21758065 79.9758871,5.53854839 L79.9758871,5.57564516 C80.668629,5.81516129 81.0823387,6.45709677 81.2960484,7.38935484 C81.5912097,8.6433871 81.8049194,9.50709677 81.9895968,9.85709677 L80.786371,9.85709677 C80.6468548,9.58774194 80.4404032,8.82806452 80.1895968,7.71112903 C79.9170161,6.46758065 79.4371774,6.00306452 78.3895968,5.96596774 L77.2904032,5.96596774 L77.2904032,9.85709677 L76.1404032,9.85709677 L76.1404032,0.990967742 Z" id="Fill-12"></path>
                        <polygon id="Fill-13" points="89.9693548 9.85725806 91.1282258 9.85725806 91.1282258 0.872580645 89.9693548 0.872580645"></polygon>
                        <polygon id="Fill-14" points="104.471774 5.64491935 100.983065 5.64491935 100.983065 8.88362903 104.877419 8.88362903 104.877419 9.85701613 99.8177419 9.85701613 99.8177419 0.873145161 104.678226 0.873145161 104.678226 1.8425 100.983065 1.8425 100.983065 4.68282258 104.471774 4.68282258"></polygon>
                        <polygon id="Fill-1" points="0.870967742 0.872741935 0.870967742 9.85741935 5.86451613 9.85741935 5.86451613 8.88322581 2.02903226 8.88322581 2.02903226 0.872741935"></polygon>
                        <polygon id="Fill-2" points="13.8233871 9.85725806 14.9814516 9.85725806 14.9814516 0.872580645 13.8233871 0.872580645"></polygon>
                    </g>
                    <g id="Logo-Biffures" transform="translate(0.584477, 19.681358)">
                        <path d="M21.1043907,47.6874768 C23.9865836,48.0907241 32.8942477,46.1968288 36.8980148,46.0683364 C38.4112173,45.8872169 39.579951,45.8093013 40.4582099,45.8031501 C41.2052425,45.8127186 39.4958841,45.8872169 36.8980148,46.0683364 C35.7415836,46.20298 34.3787445,46.3656458 32.7787413,46.578205 C34.844871,46.6718404 36.8200992,46.7839295 38.236249,46.9124218 C39.2300143,46.7470221 40.2490681,46.6499694 41.2804242,46.5283117 C45.8063624,45.9562473 50.1942396,45.4593647 54.7044579,45.30285 C56.3365842,45.2153659 59.8967793,45.0212604 61.4878973,45.1183132 C54.8889948,45.4183565 48.3037616,46.077905 41.7492846,46.9780349 L42.2933267,46.9753011 C45.7469005,46.5877736 49.2196114,46.3246377 52.6827537,46.1250644 C53.2671206,46.0717538 53.8644733,46.0341629 54.4768624,46.0280117 L52.6827537,46.1250644 C51.1483637,46.2528733 49.672752,46.5467654 48.0160208,46.7941815 C46.9819307,46.896702 45.7844913,46.874831 44.7504013,46.9848696 C43.9090497,47.0750877 43.1087064,46.9937548 42.2933267,46.9753011 L40.7432168,47.1441181 L40.273673,47.2589411 L40.2962275,47.2685097 C41.7308309,47.8562939 54.7926255,47.5125085 56.9120659,47.2439048 C58.6118557,46.9964886 60.1182235,46.1250644 62.0285221,45.8940516 C62.6689335,45.8154525 63.2225441,46.0034068 63.703707,45.8031501 C63.7412978,45.6814924 63.9846131,45.5837562 64.2251946,45.4839696 C65.501233,45.3623119 66.8011929,45.7341196 67.7696698,45.337707 C68.4579241,45.1586379 70.4331523,47.0128919 70.5643785,46.6561206 C71.0708298,45.3684632 70.7024395,46.306184 72.3208964,46.3875169 C72.5150018,46.4093879 73.1465281,45.8749144 73.546358,45.9220738 C74.8716063,46.224851 75.2529825,45.8127186 76.7784875,45.6650891 C79.0530756,45.2714104 79.5287707,46.0656025 81.5600434,45.3308723 C81.8040422,45.2529567 84.9794437,44.8305723 84.9794437,44.8305723 C87.4365182,45.0561174 89.0050818,44.5373637 90.8682209,45.5434315 C93.1441759,44.9371936 96.0195341,46.1093446 98.3761385,46.2282684 C100.745045,46.3690632 101.658161,47.0942248 103.621087,47.9191731 C104.189734,48.0907241 104.633306,48.1002926 104.952487,48.319003 C105.258681,48.5438646 106.158811,48.1782082 106.728142,48.3504426 L106.527885,48.6716735 C106.721307,48.7318189 107.096532,48.843908 107.284486,48.9040533 C107.478592,48.9600979 107.40341,49.0660357 107.347365,49.1760744 C107.209304,49.3913674 107.078078,49.6066604 107.384273,49.8287882 C108.159328,50.1322488 108.959671,50.4227236 109.772317,50.6851761 C110.634856,50.663305 111.485093,50.6168291 112.323027,50.5443812 C112.40436,50.3981187 112.491844,50.2470718 112.62307,50.1384001 L113.398125,50.016059 C113.597698,49.6975619 113.622987,49.3161857 113.767199,49.1063604 C113.948318,48.1351496 115.154643,47.3785483 115.079461,46.45313 C115.035719,46.1783751 113.622987,45.8373236 113.066642,45.2652592 C112.941567,45.0937082 113.348232,44.8435582 113.560791,44.5277951 C112.716705,44.3746978 112.735843,43.9967389 113.14114,43.7431716 C112.948402,43.6809758 112.754296,43.6146792 112.754296,43.6146792 C112.822643,43.5121587 113.041354,43.1929783 113.041354,43.1929783 C110.978641,42.3584614 108.697219,41.1329998 106.521734,41.2737946 C106.065176,41.264226 105.270984,41.4118555 104.752913,41.5082248 C104.483626,41.5615354 103.964872,41.2737946 103.764616,41.2239013 C103.364786,41.4959223 103.370937,41.8738812 103.17068,42.2053641 C101.664313,41.674308 98.3699873,40.6702906 98.3446989,41.9237745 C97.0946323,41.7207839 96.7822866,42.3017334 95.4816432,42.2368038 C93.756565,42.1807592 91.5687776,42.0365471 89.4055952,41.9798191 C88.2245591,41.9893876 87.0927328,41.8984861 85.9486041,41.8301391 L84.71084,41.7986995 C76.1654149,41.6025436 69.7831724,40.7112988 61.4878973,42.1773419 C44.9062324,45.0123753 26.3684765,46.1401008 22.1863237,46.9848696 L21.1043907,47.6874768 Z" id="Fill-1" fill="#FFFFFF"></path>
                        <path d="M25.1365902,20.3168283 C25.2397941,20.0482246 25.448936,19.8541191 25.6929347,19.7379292 C25.414079,19.4290008 25.1365902,19.0817981 25.1365902,18.6190889 C25.1365902,17.9219495 25.6929347,17.3437339 26.3183098,17.3437339 C27.4309989,17.3437339 27.7775181,19.2348953 27.7775181,20.2040558 C27.7775181,21.6735162 27.0837961,22.5982511 25.7271082,22.5982511 C25.2397941,22.5982511 24.3020733,22.5203355 24.3020733,21.7856053 C24.3020733,21.2073897 24.7517966,20.6660815 25.0989993,20.3168283 L25.1365902,20.3168283 Z M27.3619684,37.8546677 C27.3619684,39.054841 27.7433446,42.1058509 26.142658,42.0648427 C25.448936,42.0648427 25.0306523,41.5269519 25.0675597,40.7929051 C25.0675597,37.1602622 25.5863134,33.5283028 25.5863134,29.8963434 C25.5863134,28.1213719 25.2397941,26.3053922 25.2397941,24.567328 C25.2397941,24.1798006 25.3771716,23.873606 25.7612817,23.873606 C26.0401375,23.873606 26.2144223,24.0642941 26.2492793,24.3732226 C27.2587644,28.4303003 27.3619684,33.6848174 27.3619684,37.8956759 L27.3619684,37.8546677 Z" id="Fill-3" fill="#FFFFFF"></path>
                        <path d="M31.431622,24.7894558 C31.328418,23.6296072 31.2559702,22.4731761 31.2224802,21.3481845 C31.2224802,17.4879461 33.1696861,11.1521795 36.7859257,9.8023263 C37.7919935,9.41069801 40.6085733,9.14277778 41.7588532,9.14277778 C42.2776069,9.14277778 44.2938433,10.8022429 44.2938433,11.3428676 C44.2938433,11.4993822 44.1557824,11.9238171 43.9466406,11.9238171 C43.4969173,11.9238171 42.7307475,11.6928042 42.3466374,11.4207832 C36.1229599,11.6928042 33.8668255,14.1649151 33.8668255,21.3133275 C33.8668255,22.5073496 33.9351725,23.7075228 34.0383764,24.8673714 L41.4806809,25.1735659 C42.2434334,25.2145741 42.799778,25.8707053 42.799778,26.6806172 C42.799778,27.6087694 42.2085765,28.265584 41.3740596,28.2273097 L34.42317,27.9552887 C35.0478616,32.6315902 35.9855824,37.3044744 35.9507254,42.092865 C35.9507254,42.9458355 35.3608908,43.6026502 34.594721,43.6026502 C33.7602042,43.6026502 33.2728901,42.9806925 33.2380331,42.0525403 C33.0316252,37.2265588 32.3379032,32.6315902 31.7439678,27.8370484 C30.6996256,27.8370484 29.4126517,27.8370484 29.3812121,26.2958236 C29.3812121,24.9022283 30.3872799,24.6732659 31.396765,24.7894558 L31.431622,24.7894558 Z" id="Fill-5" fill="#FFFFFF"></path>
                        <path d="M46.7127802,24.7894558 C46.6095763,23.6296072 46.5405458,22.4731761 46.5063723,21.3481845 C46.5063723,17.4879461 48.4542617,11.1521795 52.067084,9.8023263 C53.0765691,9.41069801 55.8931489,9.14277778 57.0400115,9.14277778 C57.5614991,9.14277778 59.5784189,10.8022429 59.5784189,11.3428676 C59.5784189,11.4993822 59.4369407,11.9238171 59.2312162,11.9238171 C58.7780756,11.9238171 58.0146397,11.6928042 57.6305295,11.4207832 C51.4075355,11.6928042 49.1479837,14.1649151 49.1479837,21.3133275 C49.1479837,22.5073496 49.2197481,23.7075228 49.3195347,24.8673714 L56.7618392,25.1735659 C57.5273256,25.2145741 58.0843536,25.8707053 58.0843536,26.6806172 C58.0843536,27.6087694 57.4897347,28.265584 56.6586352,28.2273097 L49.700911,27.9552887 C50.3290199,32.6315902 51.2667407,37.3044744 51.235301,42.092865 C51.235301,42.9458355 50.644783,43.6026502 49.8758793,43.6026502 C49.0413624,43.6026502 48.5567822,42.9806925 48.5226087,42.0525403 C48.3127834,37.2265588 47.6190614,32.6315902 47.025126,27.8370484 C45.9842013,27.8370484 44.6972273,27.8370484 44.6623703,26.2958236 C44.6623703,24.9022283 45.6718555,24.6732659 46.6779233,24.7894558 L46.7127802,24.7894558 Z" id="Fill-7" fill="#FFFFFF"></path>
                        <path d="M62.4624572,24.7081229 C62.4624572,25.0983842 62.638109,25.4421696 62.6722825,25.8303805 C62.9504547,28.7310271 62.9504547,34.638258 66.7731023,34.638258 C67.7108231,33.7907553 67.7477304,29.8874583 67.7477304,28.6121033 C67.7477304,26.5275199 67.2980072,24.4046622 67.2980072,22.3952605 C67.2980072,21.4664248 68.0634936,20.7699689 68.8200948,20.7699689 C70.9832773,20.7699689 70.8390651,26.9526382 70.8390651,28.5369216 C70.8390651,31.4717417 70.4952797,38.0016138 66.7731023,37.9606056 C61.703122,37.9606056 59.9589067,30.3091593 59.9589067,25.8303805 C59.9589067,24.9425531 61.3880424,23.2420798 62.2218757,23.2420798 C62.7789038,23.2420798 62.4624572,24.3643375 62.4624572,24.6732659 L62.4624572,24.7081229 Z" id="Fill-9" fill="#FFFFFF"></path>
                        <path d="M76.3968379,21.7353702 C78.2346886,21.582273 80.1169649,22.354594 82.0293139,22.354594 C82.5856584,22.354594 83.1105634,22.1604885 83.6669079,22.1604885 C84.4611,22.1604885 85.2238525,22.548016 85.1924129,23.5513499 C85.1924129,24.8267049 84.4235092,24.9422113 83.5548189,24.9018866 C83.0353817,24.9018866 82.5542188,25.1363168 82.0293139,25.1363168 C80.1538723,25.1363168 78.3098703,24.7084646 76.4282775,24.5205103 C76.6408366,25.5614351 76.5718062,26.758191 76.5718062,27.8373901 L76.5718062,31.2027962 C76.5718062,32.7064302 77.1971812,37.8447574 75.3524958,37.8857656 C74.6273341,37.8857656 74.0709896,37.2665418 74.0340822,36.4914869 C74.0340822,33.325654 74.0709896,30.1564037 74.0709896,27.0274782 L73.9589005,26.7991992 L73.9281443,26.5271782 C73.8584304,25.6017598 74.515245,20.4634326 75.3907701,20.4634326 C76.1159317,20.4634326 76.0154616,21.2357537 75.9471146,21.7729611 L76.4282775,21.7353702 L76.3968379,21.7353702 Z" id="Fill-11" fill="#FFFFFF"></path>
                        <path d="M98.6073564,26.4115351 C99.1513985,26.7054271 99.9763468,24.7548039 99.7576364,24.0139224 C99.014021,21.4133192 95.4258037,22.4289555 93.7752237,22.6729543 C92.3686425,22.8793623 91.243651,24.8081145 90.5875198,24.1738544 C92.5688992,26.0834695 96.2131611,25.1395974 98.6073564,26.4115351 L98.6073564,26.4115351 Z M88.943091,25.8490393 C88.2247641,26.4990192 88.0368099,28.1024398 88.2801252,29.3935145 C89.0497124,33.3972816 94.3069634,35.7443175 96.1448141,35.2194126 C99.5450772,34.2441009 101.158066,30.2840759 104.571315,29.3060304 C105.271189,29.1057737 105.977897,29.5466118 106.190456,30.2909106 C106.415317,31.0686994 106.052395,31.8157321 105.34637,32.0159888 C102.439573,32.8505056 100.895614,36.7886596 96.8822782,37.9389396 C93.6754371,38.8575232 87.1359964,36.0354757 85.8797786,30.0838192 C85.1423145,26.5680497 86.1299287,24.5866702 87.9178861,22.748136 C89.3121648,21.3046474 91.1561668,20.735317 93.1621512,20.1598353 C96.4011154,19.2289492 100.870325,18.6726046 102.189423,23.2771418 C103.033508,26.2085445 101.126627,26.3930814 100.214194,28.380612 C100.033075,28.7558371 99.8519552,29.3743774 99.4637443,29.5247408 C98.9887327,29.6587009 98.5889027,28.9964185 98.2136777,28.83717 C94.0253737,27.0738175 92.9940176,29.1720703 89.9430076,26.868093 L88.943091,25.8490393 Z" id="Fill-13" fill="#FFFFFF"></path>
                        <path d="M115.485647,19.1319648 C113.679236,19.1319648 112.116824,20.4852353 112.116824,22.608093 C112.116824,23.9989544 112.322548,26.546247 114.060612,26.546247 C115.592269,26.546247 117.11709,26.317968 118.64943,26.317968 C120.31778,26.317968 122.950506,27.4839678 122.756401,29.5999908 C122.405781,33.3693277 122.21851,33.5565985 119.19894,35.4443425 C117.142379,36.7292661 115.530073,37.607525 112.116824,37.3669435 C110.122458,37.2234148 106.759103,33.772575 106.721512,32.2662072 C106.721512,31.5724851 107.315447,30.9901687 107.940139,30.949844 C108.640696,30.949844 110.541426,34.3131997 112.085384,34.8134997 C114.167234,35.5003871 115.154848,34.7478866 117.130076,33.8416054 C119.386894,32.8034146 120.455841,32.6913255 120.455841,29.5651338 C120.073781,29.0996908 119.243365,28.8304036 118.64943,28.8304036 C117.11709,28.8304036 115.592269,29.0593661 114.060612,29.0593661 C110.828483,29.0593661 109.853855,25.5832378 109.853855,22.608093 C109.853855,19.0540492 112.42917,16.7343521 115.485647,16.7343521 C117.329649,16.7343521 118.26737,19.0943739 118.26737,20.9069363 C118.26737,21.5261601 118.024055,21.9922866 117.39868,21.9922866 C115.904614,21.9922866 117.048743,19.1319648 115.523238,19.1319648 L115.485647,19.1319648 Z" id="Fill-15" fill="#FFFFFF"></path>
                        <path d="M18.7666501,33.9349674 C18.5821132,33.3724717 16.4790761,28.9873283 15.2187575,27.7242758 C13.68095,28.0995008 12.5122164,28.2867716 11.6749657,28.2867716 C10.0831641,28.2867716 8.777053,27.8650706 5.60096805,26.2773699 C5.60096805,26.2773699 5.46085671,25.671132 5.17926708,25.4831778 C4.90177827,25.3458003 4.43565175,25.3895424 4.43565175,25.3895424 L4.01326731,30.8060419 L3.35987002,37.2484298 L4.38849232,41.2180234 C5.32347924,44.7686499 7.09845075,46.212822 10.5028147,46.212822 C14.1470765,46.212822 17.368954,44.3469489 19.1418751,41.2644994 C19.7945889,40.192135 20.123338,39.2578316 20.123338,38.5579583 C20.123338,37.8546677 19.6572114,36.2697009 18.7666501,33.9349674 M11.9524545,8.02052009 C9.85215126,6.52987209 8.35808591,6.06032822 5.64881095,5.87647479 C5.74176286,7.92620123 5.78892229,9.75243299 5.78892229,11.3838758 C5.78892229,12.1309085 5.74176286,12.9244171 5.69528691,13.7151919 C5.69528691,13.859404 5.41643116,15.8653884 4.90177827,19.6914533 C4.76029999,20.3947439 4.66939848,21.3762068 4.52928714,22.7294773 C5.08904904,22.6358419 5.51075001,22.5920998 5.74176286,22.5920998 C6.35141808,22.5920998 7.23582822,22.8203788 8.35808591,23.2892392 L8.35808591,23.6610469 C9.7578324,23.7546822 10.2711183,23.8483176 11.4870114,24.0362719 C12.5586923,24.2235426 13.8654869,24.6425097 14.2400285,24.6425097 C15.546823,24.6425097 16.5289694,23.1484444 16.5289694,21.1390427 C16.5289694,16.7067399 16.4346505,11.1487621 11.9524545,8.02052009 M16.572028,47.1471254 C14.5216181,48.2188063 12.1397252,48.9220969 10.4119132,48.9220969 C7.79559012,48.9220969 5.46085671,47.8469987 2.1473943,45.1841997 L2.1473943,44.3934249 L-6.83469969e-05,43.9744578 C-6.83469969e-05,43.9744578 -6.83469969e-05,41.4517702 0.0942505087,39.81691 C0.231627973,38.1362573 0.559693558,37.2012704 0.606852986,35.5226682 C0.653328944,34.3539345 0.559693558,33.7005372 0.559693558,32.5352209 C0.559693558,28.7023214 1.07229603,22.6830013 1.07229603,22.6830013 L1.54115643,22.2606169 L1.63137447,19.6914533 L2.23761233,16.2843555 C2.23761233,16.2843555 2.7071562,9.47084336 2.7071562,9.18925374 C2.7071562,7.32064684 2.61283735,7.04179109 1.54115643,6.01385226 C2.28818911,4.93807053 2.3818245,4.61342229 2.56636139,3.21299232 C2.56636139,3.21299232 2.89169309,3.26015175 3.03522179,3.11935694 C3.12885717,2.9792456 3.03522179,2.69765597 3.03522179,2.69765597 C3.03522179,2.69765597 3.35987002,2.32516484 3.68861908,2.23221292 C4.06384409,2.13789406 4.24769751,2.46595965 4.62292252,2.46595965 C4.99473019,2.46595965 5.55449209,2.23221292 5.55449209,2.23221292 L6.02061861,3.07219751 C10.131007,3.44400517 11.6250724,3.86638962 13.4000439,5.07954881 C16.8536176,7.4580243 19.2819864,13.6714498 19.2819864,20.2539491 C19.2819864,23.101285 19.0475562,23.8018417 17.2760021,25.9957803 C20.0761785,29.1247058 20.9605887,30.7124065 22.2701171,34.9601724 C22.829879,36.8267289 23.1579446,38.2763687 23.1579446,39.1607788 C23.1579446,41.682783 20.123338,45.3714704 16.572028,47.1471254" id="Fill-18" fill="#FFFFFF"></path>
                        <g id="Biffures">
                            <path d="M21.1043907,46.1559573 C23.9865836,46.5592045 32.8942477,44.6653093 36.8980148,44.5368169 C38.4112173,44.3556974 39.579951,44.2777818 40.4582099,44.2716306 C41.2052425,44.2811991 39.4958841,44.3556974 36.8980148,44.5368169 C35.7415836,44.6714605 34.3787445,44.8341263 32.7787413,45.0466855 C34.844871,45.1403209 36.8200992,45.25241 38.236249,45.3809023 C39.2300143,45.2155026 40.2490681,45.1184498 41.2804242,44.9967922 C45.8063624,44.4247278 50.1942396,43.9278452 54.7044579,43.7713305 C56.3365842,43.6838464 59.8967793,43.4897409 61.4878973,43.5867936 C54.8889948,43.886837 48.3037616,44.5463855 41.7492846,45.4465154 L42.2933267,45.4437816 C45.7469005,45.0562541 49.2196114,44.7931181 52.6827537,44.5935449 C53.2671206,44.5402343 53.8644733,44.5026434 54.4768624,44.4964922 L52.6827537,44.5935449 C51.1483637,44.7213538 49.672752,45.0152459 48.0160208,45.262662 C46.9819307,45.3651825 45.7844913,45.3433115 44.7504013,45.4533501 C43.9090497,45.5435682 43.1087064,45.4622352 42.2933267,45.4437816 L40.7432168,45.6125986 L40.273673,45.7274216 L40.2962275,45.7369902 C41.7308309,46.3247743 54.7926255,45.980989 56.9120659,45.7123853 C58.6118557,45.4649691 60.1182235,44.5935449 62.0285221,44.3625321 C62.6689335,44.283933 63.2225441,44.4718873 63.703707,44.2716306 C63.7412978,44.1499729 63.9846131,44.0522367 64.2251946,43.9524501 C65.501233,43.8307924 66.8011929,44.2026001 67.7696698,43.8061875 C68.4579241,43.6271184 70.4331523,45.4813724 70.5643785,45.1246011 C71.0708298,43.8369437 70.7024395,44.7746645 72.3208964,44.8559974 C72.5150018,44.8778684 73.1465281,44.3433949 73.546358,44.3905543 C74.8716063,44.6933315 75.2529825,44.2811991 76.7784875,44.1335696 C79.0530756,43.7398909 79.5287707,44.534083 81.5600434,43.7993528 C81.8040422,43.7214372 84.9794437,43.2990528 84.9794437,43.2990528 C87.4365182,43.5245979 89.0050818,43.0058442 90.8682209,44.011912 C93.1441759,43.4056741 96.0195341,44.5778251 98.3761385,44.6967489 C100.745045,44.8375437 101.658161,45.5627053 103.621087,46.3876536 C104.189734,46.5592045 104.633306,46.5687731 104.952487,46.7874835 C105.258681,47.0123451 106.158811,46.6466887 106.728142,46.8189231 L106.527885,47.140154 C106.721307,47.2002994 107.096532,47.3123885 107.284486,47.3725338 C107.478592,47.4285783 107.40341,47.5345162 107.347365,47.6445549 C107.209304,47.8598479 107.078078,48.0751409 107.384273,48.2972687 C108.159328,48.6007293 108.959671,48.8912041 109.772317,49.1536565 C110.634856,49.1317855 111.485093,49.0853096 112.323027,49.0128617 C112.40436,48.8665992 112.491844,48.7155523 112.62307,48.6068806 L113.398125,48.4845394 C113.597698,48.1660424 113.622987,47.7846662 113.767199,47.5748409 C113.948318,46.6036301 115.154643,45.8470288 115.079461,44.9216105 C115.035719,44.6468556 113.622987,44.3058041 113.066642,43.7337397 C112.941567,43.5621887 113.348232,43.3120387 113.560791,42.9962756 C112.716705,42.8431783 112.735843,42.4652194 113.14114,42.2116521 C112.948402,42.1494563 112.754296,42.0831597 112.754296,42.0831597 C112.822643,41.9806392 113.041354,41.6614587 113.041354,41.6614587 C110.978641,40.8269419 108.697219,39.6014803 106.521734,39.7422751 C106.065176,39.7327065 105.270984,39.880336 104.752913,39.9767053 C104.483626,40.0300159 103.964872,39.7422751 103.764616,39.6923818 C103.364786,39.9644028 103.370937,40.3423617 103.17068,40.6738446 C101.664313,40.1427885 98.3699873,39.1387711 98.3446989,40.392255 C97.0946323,40.1892644 96.7822866,40.7702139 95.4816432,40.7052843 C93.756565,40.6492397 91.5687776,40.5050276 89.4055952,40.4482996 C88.2245591,40.4578681 87.0927328,40.3669666 85.9486041,40.2986196 L84.71084,40.26718 C76.1654149,40.0710241 69.7831724,39.1797793 61.4878973,40.6458224 C44.9062324,43.4808558 26.3684765,44.6085813 22.1863237,45.4533501 L21.1043907,46.1559573 Z" id="Fill-21" fill="#428BF5"></path>
                            <path d="M25.1365902,18.7853088 C25.2397941,18.5167051 25.448936,18.3225996 25.6929347,18.2064097 C25.414079,17.8974813 25.1365902,17.5502786 25.1365902,17.0875694 C25.1365902,16.39043 25.6929347,15.8122144 26.3183098,15.8122144 C27.4309989,15.8122144 27.7775181,17.7033758 27.7775181,18.6725363 C27.7775181,20.1419967 27.0837961,21.0667316 25.7271082,21.0667316 C25.2397941,21.0667316 24.3020733,20.988816 24.3020733,20.2540858 C24.3020733,19.6758702 24.7517966,19.134562 25.0989993,18.7853088 L25.1365902,18.7853088 Z M27.3619684,36.3231482 C27.3619684,37.5233215 27.7433446,40.5743314 26.142658,40.5333232 C25.448936,40.5333232 25.0306523,39.9954323 25.0675597,39.2613856 C25.0675597,35.6287427 25.5863134,31.9967833 25.5863134,28.3648239 C25.5863134,26.5898524 25.2397941,24.7738727 25.2397941,23.0358085 C25.2397941,22.6482811 25.3771716,22.3420865 25.7612817,22.3420865 C26.0401375,22.3420865 26.2144223,22.5327746 26.2492793,22.8417031 C27.2587644,26.8987808 27.3619684,32.1532979 27.3619684,36.3641564 L27.3619684,36.3231482 Z" id="Fill-23" fill="#428BF5"></path>
                            <path d="M31.431622,23.2579363 C31.328418,22.0980877 31.2559702,20.9416565 31.2224802,19.816665 C31.2224802,15.9564266 33.1696861,9.62065998 36.7859257,8.27080679 C37.7919935,7.8791785 40.6085733,7.61125827 41.7588532,7.61125827 C42.2776069,7.61125827 44.2938433,9.27072336 44.2938433,9.8113481 C44.2938433,9.96786272 44.1557824,10.3922976 43.9466406,10.3922976 C43.4969173,10.3922976 42.7307475,10.1612847 42.3466374,9.88926368 C36.1229599,10.1612847 33.8668255,12.6333956 33.8668255,19.781808 C33.8668255,20.97583 33.9351725,22.1760033 34.0383764,23.3358519 L41.4806809,23.6420464 C42.2434334,23.6830546 42.799778,24.3391858 42.799778,25.1490977 C42.799778,26.0772499 42.2085765,26.7340645 41.3740596,26.6957902 L34.42317,26.4237692 C35.0478616,31.1000707 35.9855824,35.7729549 35.9507254,40.5613455 C35.9507254,41.414316 35.3608908,42.0711306 34.594721,42.0711306 C33.7602042,42.0711306 33.2728901,41.449173 33.2380331,40.5210208 C33.0316252,35.6950393 32.3379032,31.1000707 31.7439678,26.3055289 C30.6996256,26.3055289 29.4126517,26.3055289 29.3812121,24.7643041 C29.3812121,23.3707088 30.3872799,23.1417464 31.396765,23.2579363 L31.431622,23.2579363 Z" id="Fill-25" fill="#428BF5"></path>
                            <path d="M46.7127802,23.2579363 C46.6095763,22.0980877 46.5405458,20.9416565 46.5063723,19.816665 C46.5063723,15.9564266 48.4542617,9.62065998 52.067084,8.27080679 C53.0765691,7.8791785 55.8931489,7.61125827 57.0400115,7.61125827 C57.5614991,7.61125827 59.5784189,9.27072336 59.5784189,9.8113481 C59.5784189,9.96786272 59.4369407,10.3922976 59.2312162,10.3922976 C58.7780756,10.3922976 58.0146397,10.1612847 57.6305295,9.88926368 C51.4075355,10.1612847 49.1479837,12.6333956 49.1479837,19.781808 C49.1479837,20.97583 49.2197481,22.1760033 49.3195347,23.3358519 L56.7618392,23.6420464 C57.5273256,23.6830546 58.0843536,24.3391858 58.0843536,25.1490977 C58.0843536,26.0772499 57.4897347,26.7340645 56.6586352,26.6957902 L49.700911,26.4237692 C50.3290199,31.1000707 51.2667407,35.7729549 51.235301,40.5613455 C51.235301,41.414316 50.644783,42.0711306 49.8758793,42.0711306 C49.0413624,42.0711306 48.5567822,41.449173 48.5226087,40.5210208 C48.3127834,35.6950393 47.6190614,31.1000707 47.025126,26.3055289 C45.9842013,26.3055289 44.6972273,26.3055289 44.6623703,24.7643041 C44.6623703,23.3707088 45.6718555,23.1417464 46.6779233,23.2579363 L46.7127802,23.2579363 Z" id="Fill-27" fill="#428BF5"></path>
                            <path d="M62.4624572,23.1766033 C62.4624572,23.5668647 62.638109,23.9106501 62.6722825,24.298861 C62.9504547,27.1988241 62.9504547,33.1067385 66.7731023,33.1067385 C67.7108231,32.2592358 67.7477304,28.3559388 67.7477304,27.0805838 C67.7477304,24.9960004 67.2980072,22.8731427 67.2980072,20.863741 C67.2980072,19.9349053 68.0634936,19.2384494 68.8200948,19.2384494 C70.9832773,19.2384494 70.8390651,25.4211187 70.8390651,27.0054021 C70.8390651,29.9402222 70.4952797,36.4700942 66.7731023,36.429086 C61.703122,36.429086 59.9589067,28.7776397 59.9589067,24.298861 C59.9589067,23.4110335 61.3880424,21.7105603 62.2218757,21.7105603 C62.7789038,21.7105603 62.4624572,22.832818 62.4624572,23.1417464 L62.4624572,23.1766033 Z" id="Fill-29" fill="#428BF5"></path>
                            <path d="M76.3968379,20.2038507 C78.2346886,20.0507534 80.1169649,20.8230745 82.0293139,20.8230745 C82.5856584,20.8230745 83.1105634,20.628969 83.6669079,20.628969 C84.4611,20.628969 85.2238525,21.0164965 85.1924129,22.0198304 C85.1924129,23.2951854 84.4235092,23.4106918 83.5548189,23.3703671 C83.0353817,23.3703671 82.5542188,23.6047973 82.0293139,23.6047973 C80.1538723,23.6047973 78.3098703,23.1769451 76.4282775,22.9889908 C76.6408366,24.0299156 76.5718062,25.2266715 76.5718062,26.3058706 L76.5718062,29.6712767 C76.5718062,31.1749107 77.1971812,36.3132379 75.3524958,36.3542461 C74.6273341,36.3542461 74.0709896,35.7350223 74.0340822,34.9599674 C74.0340822,31.7941345 74.0709896,28.6248842 74.0709896,25.4959587 L73.9589005,25.2676797 L73.9281443,24.9956587 C73.8584304,24.0702403 74.515245,18.9319131 75.3907701,18.9319131 C76.1159317,18.9319131 76.0154616,19.7042342 75.9471146,20.2414416 L76.4282775,20.2038507 L76.3968379,20.2038507 Z" id="Fill-31" fill="#428BF5"></path>
                            <path d="M98.6073564,24.8800156 C99.1513985,25.1739076 99.9763468,23.2232843 99.7576364,22.4824029 C99.014021,19.8817997 95.4258037,20.897436 93.7752237,21.1414348 C92.3686425,21.3478428 91.243651,23.276595 90.5875198,22.6423349 C92.5688992,24.55195 96.2131611,23.6080779 98.6073564,24.8800156 L98.6073564,24.8800156 Z M88.943091,24.3175198 C88.2247641,24.9674997 88.0368099,26.5709203 88.2801252,27.861995 C89.0497124,31.8657621 94.3069634,34.212798 96.1448141,33.687893 C99.5450772,32.7125814 101.158066,28.7525564 104.571315,27.7745109 C105.271189,27.5742542 105.977897,28.0150923 106.190456,28.7593911 C106.415317,29.5371799 106.052395,30.2842126 105.34637,30.4844693 C102.439573,31.3189861 100.895614,35.2571401 96.8822782,36.4074201 C93.6754371,37.3260037 87.1359964,34.5039562 85.8797786,28.5522997 C85.1423145,25.0365302 86.1299287,23.0551507 87.9178861,21.2166165 C89.3121648,19.7731279 91.1561668,19.2037975 93.1621512,18.6283157 C96.4011154,17.6974296 100.870325,17.1410851 102.189423,21.7456223 C103.033508,24.677025 101.126627,24.8615619 100.214194,26.8490925 C100.033075,27.2243175 99.8519552,27.8428579 99.4637443,27.9932213 C98.9887327,28.1271814 98.5889027,27.464899 98.2136777,27.3056505 C94.0253737,25.542298 92.9940176,27.6405508 89.9430076,25.3365735 L88.943091,24.3175198 Z" id="Fill-33" fill="#428BF5"></path>
                            <g id="Group-37" transform="translate(106.621315, 15.066754)">
                                <mask id="mask-2" fill="white">
                                    <use xlink:href="#path-1"></use>
                                </mask>
                                <g id="Clip-36"></g>
                                <path d="M8.86433211,2.53369152 C7.05792098,2.53369152 5.49550863,3.88696206 5.49550863,6.00981979 C5.49550863,7.40068117 5.70123309,9.94797375 7.43929723,9.94797375 C8.97095343,9.94797375 10.4957749,9.71969478 12.0281146,9.71969478 C13.6964648,9.71969478 16.3291911,10.8856945 16.1350856,13.0017176 C15.7844655,16.7710545 15.5971948,16.9583252 12.5776245,18.8460693 C10.5210633,20.1309928 8.90875766,21.0092517 5.49550863,20.7686703 C3.50114326,20.6251416 0.137787546,17.1743017 0.100196697,15.6679339 C0.100196697,14.9742119 0.694132101,14.3918955 1.31882365,14.3515708 C2.01938037,14.3515708 3.92011036,17.7149265 5.46406902,18.2152265 C7.54591854,18.9021138 8.53353265,18.1496134 10.5087609,17.2433322 C12.7655787,16.2051413 13.8345257,16.0930522 13.8345257,12.9668606 C13.452466,12.5014176 12.62205,12.2321304 12.0281146,12.2321304 C10.4957749,12.2321304 8.97095343,12.4610928 7.43929723,12.4610928 C4.20716774,12.4610928 3.23253957,8.98496456 3.23253957,6.00981979 C3.23253957,2.45577595 5.80785441,0.136078871 8.86433211,0.136078871 C10.7083341,0.136078871 11.6460549,2.49610067 11.6460549,4.30866303 C11.6460549,4.92788682 11.4027396,5.39401334 10.7773646,5.39401334 C9.2832992,5.39401334 10.4274279,2.53369152 8.90192296,2.53369152 L8.86433211,2.53369152 Z" id="Fill-35" fill="#428BF5" mask="url(#mask-2)"></path>
                            </g>
                            <g id="Group-40" transform="translate(0.000000, 0.030414)" fill="#428BF5">
                                <path d="M18.7666501,32.3730335 C18.5821132,31.8105377 16.4790761,27.4253944 15.2187575,26.1623419 C13.68095,26.5375669 12.5122164,26.7248377 11.6749657,26.7248377 C10.0831641,26.7248377 8.777053,26.3031367 5.60096805,24.715436 C5.60096805,24.715436 5.46085671,24.1091981 5.17926708,23.9212439 C4.90177827,23.7838664 4.43565175,23.8276085 4.43565175,23.8276085 L4.01326731,29.244108 L3.35987002,35.6864959 L4.38849232,39.6560895 C5.32347924,43.206716 7.09845075,44.650888 10.5028147,44.650888 C14.1470765,44.650888 17.368954,42.785015 19.1418751,39.7025655 C19.7945889,38.6302011 20.123338,37.6958976 20.123338,36.9960244 C20.123338,36.2927338 19.6572114,34.7077669 18.7666501,32.3730335 M11.9524545,6.45858617 C9.85215126,4.96793816 8.35808591,4.4983943 5.64881095,4.31454087 C5.74176286,6.36426731 5.78892229,8.19049907 5.78892229,9.82194189 C5.78892229,10.5689746 5.74176286,11.3624832 5.69528691,12.153258 C5.69528691,12.2974701 5.41643116,14.3034545 4.90177827,18.1295194 C4.76029999,18.83281 4.66939848,19.8142728 4.52928714,21.1675434 C5.08904904,21.073908 5.51075001,21.0301659 5.74176286,21.0301659 C6.35141808,21.0301659 7.23582822,21.2584449 8.35808591,21.7273053 L8.35808591,22.0991129 C9.7578324,22.1927483 10.2711183,22.2863837 11.4870114,22.474338 C12.5586923,22.6616087 13.8654869,23.0805758 14.2400285,23.0805758 C15.546823,23.0805758 16.5289694,21.5865105 16.5289694,19.5771088 C16.5289694,15.144806 16.4346505,9.58682822 11.9524545,6.45858617 M16.572028,45.5851915 C14.5216181,46.6568724 12.1397252,47.360163 10.4119132,47.360163 C7.79559012,47.360163 5.46085671,46.2850647 2.1473943,43.6222657 L2.1473943,42.831491 L-6.83469969e-05,42.4125239 C-6.83469969e-05,42.4125239 -6.83469969e-05,39.8898362 0.0942505087,38.2549761 C0.231627973,36.5743234 0.559693558,35.6393365 0.606852986,33.9607343 C0.653328944,32.7920006 0.559693558,32.1386033 0.559693558,30.973287 C0.559693558,27.1403874 1.07229603,21.1210674 1.07229603,21.1210674 L1.54115643,20.698683 L1.63137447,18.1295194 L2.23761233,14.7224216 C2.23761233,14.7224216 2.7071562,7.90890944 2.7071562,7.62731981 C2.7071562,5.75871292 2.61283735,5.47985717 1.54115643,4.45191834 C2.28818911,3.37613661 2.3818245,3.05148837 2.56636139,1.6510584 C2.56636139,1.6510584 2.89169309,1.69821783 3.03522179,1.55742302 C3.12885717,1.41731168 3.03522179,1.13572205 3.03522179,1.13572205 C3.03522179,1.13572205 3.35987002,0.763230915 3.68861908,0.670278999 C4.06384409,0.575960143 4.24769751,0.904025728 4.62292252,0.904025728 C4.99473019,0.904025728 5.55449209,0.670278999 5.55449209,0.670278999 L6.02061861,1.51026359 C10.131007,1.88207125 11.6250724,2.30445569 13.4000439,3.51761489 C16.8536176,5.89609038 19.2819864,12.1095159 19.2819864,18.6920151 C19.2819864,21.539351 19.0475562,22.2399078 17.2760021,24.4338464 C20.0761785,27.5627719 20.9605887,29.1504726 22.2701171,33.3982385 C22.829879,35.264795 23.1579446,36.7144348 23.1579446,37.5988449 C23.1579446,40.1208491 20.123338,43.8095365 16.572028,45.5851915" id="Fill-38"></path>
                            </g>
                        </g>
                    </g>
                </g>
            </g>
        </g>
    </g>
</svg>